<svg width="640" height="145" viewBox="0 0 640 145" fill="none" xmlns="http://www.w3.org/2000/svg">
<path fill-rule="evenodd" clip-rule="evenodd" d="M65.4377 79.8142C71.1387 79.8142 75.7243 75.1666 75.7243 69.5276V66.3053C73.1836 47.5291 56.9481 33.4005 38.048 33.4005C17.0411 33.4005 0 50.4416 0 71.4486V72.0063V72.44C0 72.44 0.0619698 73.6794 0.123936 74.485C1.67312 94.1287 18.2804 109.497 37.9861 109.497C47.4051 109.497 56.5143 106.026 63.5167 99.6438C65.9334 97.1031 65.9954 93.1992 63.7026 90.5346C61.3478 87.808 56.8242 87.4982 54.0976 89.8529L53.4779 90.3487C49.0782 93.8808 43.6251 95.8638 38.048 95.8638C28.1952 95.8638 19.3958 90.0388 15.5538 80.9916L16.3594 80.4339V79.8142H65.4377ZM120.589 109.435C141.472 109.435 158.575 92.3936 158.637 71.5105V6.81642C158.637 3.0364 155.6 0 151.82 0C148.04 0 145.004 3.0364 145.004 6.81642V42.2618L143.641 41.2084C136.948 36.0651 128.954 33.3385 120.589 33.3385C99.5817 33.3385 82.5407 50.3796 82.5407 71.3866C82.5407 92.3936 99.5817 109.435 120.589 109.435ZM198.792 109.311C216.328 109.311 230.581 95.0582 230.581 77.5214V40.5887C230.581 36.6848 227.359 33.4625 223.455 33.4625C219.551 33.4625 216.328 36.6848 216.328 40.5887V77.5214C216.328 87.1883 208.459 95.0582 198.792 95.0582C189.125 95.0582 181.255 87.1883 181.255 77.5214V40.5887C181.255 36.6848 178.033 33.4625 174.129 33.4625C170.225 33.4625 167.002 36.6848 167.002 40.5887V77.5214C167.002 95.0582 181.255 109.311 198.792 109.311ZM296.143 86.9404C291.495 92.5795 284.617 95.8018 277.304 95.8018C263.796 95.8018 252.889 84.8335 252.889 71.2627C252.889 57.8157 263.857 46.8475 277.304 46.8475C284.617 46.8475 291.495 50.0698 296.143 55.7088C297.444 57.258 299.365 58.1875 301.41 58.1875C302.959 58.1875 304.508 57.6298 305.747 56.6383C307.111 55.5229 307.978 53.8498 308.164 52.0527C308.35 50.2557 307.792 48.5206 306.615 47.0953C299.303 38.2959 288.645 33.2766 277.242 33.2766C256.236 33.2766 239.194 50.3176 239.194 71.3246C239.194 92.3316 256.236 109.373 277.242 109.373C288.645 109.373 299.365 104.353 306.615 95.5539C307.792 94.1906 308.35 92.3936 308.164 90.5965C308.04 88.7995 307.173 87.1883 305.747 86.0109C304.508 85.0194 302.959 84.4617 301.41 84.4617C299.365 84.4617 297.444 85.3913 296.143 86.9404ZM382.711 110.116C386.491 110.116 389.527 107.08 389.527 103.3V71.4486C389.527 50.3796 372.486 33.3385 351.479 33.3385C330.473 33.3385 313.431 50.3796 313.431 71.3866C313.431 92.3936 330.473 109.435 351.479 109.435C359.845 109.435 367.839 106.708 374.531 101.565L375.895 100.511V103.3C375.895 107.08 378.931 110.116 382.711 110.116ZM456.762 98.5903C460.108 95.0582 462.711 90.7205 464.446 85.5771C466.243 80.4958 467.111 74.7328 466.925 68.2882C466.925 61.8436 466.119 56.3285 464.632 51.7429C463.145 47.1573 461.038 43.3773 458.373 40.3409C455.709 37.3664 452.424 35.1356 448.644 33.7103C444.864 32.2851 440.651 31.6034 436.065 31.6034C429.93 31.6034 424.911 32.8428 421.069 35.2595C417.227 37.6763 414.253 40.4648 412.208 43.5632L411.34 33.3385C410.782 33.2146 410.039 33.1526 409.171 33.0907C408.304 33.0287 407.56 33.0287 407.002 33.0287C406.445 33.0287 405.701 33.0287 404.833 33.0907C403.966 33.1526 403.222 33.2146 402.665 33.3385V142.401C403.222 142.525 404.028 142.587 405.081 142.649C406.135 142.711 406.94 142.711 407.498 142.711C407.994 142.711 408.799 142.711 409.853 142.649C410.906 142.587 411.774 142.525 412.332 142.401V107.328C414.562 108.071 417.041 108.691 419.768 109.063C422.494 109.435 425.035 109.621 427.39 109.621C433.772 109.621 439.411 108.691 444.307 106.77C449.264 104.849 453.416 102.122 456.762 98.5903ZM495.12 109.249C496.607 109.249 498.156 109.125 499.892 108.939C501.565 108.753 503.114 108.381 504.415 107.947L504.371 107.529C504.261 106.477 504.145 105.37 503.981 104.167C503.734 102.804 503.424 101.565 502.928 100.387C502.184 100.573 501.193 100.759 500.016 100.883C498.838 101.069 497.723 101.131 496.669 101.131C495.856 101.131 494.934 101.022 493.954 100.906L493.757 100.883C492.703 100.759 491.712 100.325 490.844 99.7057C489.977 99.0241 489.233 98.0326 488.675 96.6074C488.118 95.1821 487.808 93.1992 487.808 90.6585V0.433769C487.25 0.309834 486.383 0.247868 485.329 0.185898C484.214 0.123932 483.47 0.123932 482.974 0.123932C482.355 0.123932 481.611 0.123932 480.558 0.185898C479.504 0.247868 478.699 0.309834 478.141 0.433769V92.8893C478.141 96.2975 478.637 99.0241 479.628 101.131C480.62 103.238 481.921 104.849 483.532 106.088C485.081 107.328 486.94 108.133 488.985 108.567C491.03 109.001 493.075 109.249 495.12 109.249ZM553.617 108.629C558.513 107.947 562.665 107.266 566.073 106.584V57.32C566.073 48.4586 563.78 41.952 559.194 37.8002C554.609 33.6484 547.607 31.6034 538.126 31.6034C534.222 31.6034 530.442 31.8513 526.724 32.409C523.005 32.9667 519.907 33.5864 517.366 34.392C517.366 35.8792 517.49 37.4284 517.862 39.1015C518.172 40.7127 518.606 42.014 519.102 42.8815C521.642 42.076 524.493 41.4563 527.715 40.8986C530.937 40.3409 534.469 40.093 538.373 40.093C544.322 40.093 548.784 41.5802 551.82 44.5546C554.857 47.5291 556.344 52.2386 556.344 58.6832V63.2069C554.983 62.9975 553.269 62.8324 551.238 62.6368C550.865 62.6008 550.48 62.5638 550.085 62.5252C547.545 62.2774 544.57 62.1534 541.038 62.1534C536.576 62.1534 532.486 62.7111 528.706 63.7646C524.926 64.88 521.704 66.4292 519.04 68.5361C516.375 70.643 514.268 73.1836 512.781 76.282C511.232 79.3804 510.488 82.8506 510.488 86.7545C510.488 94.8103 513.091 100.697 518.296 104.291C523.501 107.885 530.689 109.683 539.737 109.683C544.136 109.683 548.722 109.311 553.617 108.629ZM599.721 141.286C602.943 139.117 605.422 135.337 607.157 130.008L640 33.3385C639.38 33.2146 638.637 33.1526 637.645 33.0907C636.716 33.0287 635.848 33.0287 635.043 33.0287C634.299 33.0287 633.432 33.0287 632.44 33.0907C631.449 33.1526 630.643 33.2146 630.085 33.3385L605.794 105.841L581.069 33.3385C580.511 33.2146 579.644 33.1526 578.466 33.0907C577.289 33.0287 576.359 33.0287 575.554 33.0287C574.562 33.0287 573.509 33.0287 572.456 33.0907C571.402 33.1526 570.534 33.2146 569.977 33.3385L596.871 107.885C597.428 108.009 598.296 108.071 599.411 108.133C600.527 108.195 601.518 108.195 602.386 108.195H605.174L599.163 126.352C597.924 130.07 596.437 132.611 594.702 133.974C592.967 135.337 590.736 136.019 587.885 136.019C585.902 136.019 584.167 135.833 582.618 135.523C581.007 135.213 579.892 134.903 579.086 134.593C577.661 137.01 576.917 139.737 576.917 142.773C578.28 143.145 580.016 143.579 582.122 143.951C584.229 144.322 586.274 144.508 588.319 144.508C592.719 144.508 596.499 143.455 599.721 141.286ZM351.416 46.9709C337.969 46.9709 327.001 57.9392 327.001 71.3861C327.001 84.833 337.969 95.8013 351.416 95.8013C364.863 95.8013 375.831 84.833 375.831 71.3861C375.893 57.9392 364.925 46.9709 351.416 46.9709ZM543.085 70.636C535.773 70.636 530.134 71.9993 526.106 74.7259C522.078 77.4524 520.095 81.3564 520.095 86.4378C520.095 89.6601 520.715 92.2627 521.892 94.1837C523.132 96.1667 524.681 97.5919 526.664 98.6454C528.585 99.6988 530.754 100.38 533.108 100.69C535.463 101.062 537.818 101.186 540.111 101.186C543.147 101.186 545.936 101.062 548.6 100.752C551.203 100.442 553.806 100.071 556.346 99.5749V71.6275C555.877 71.5754 555.379 71.5184 554.851 71.458L554.843 71.4571L554.842 71.457L554.838 71.4565C553.483 71.3015 551.928 71.1237 550.149 70.9458C547.671 70.7599 545.316 70.636 543.085 70.636ZM120.591 46.9709C107.144 46.9709 96.1758 57.9392 96.1758 71.3861C96.1758 84.833 107.144 95.8013 120.591 95.8013C134.038 95.8013 145.006 84.833 145.006 71.3861C145.006 57.9392 134.038 46.9709 120.591 46.9709ZM427.888 41.3936C430.615 40.588 433.155 40.2162 435.51 40.2162C443.008 40.2162 448.461 42.7569 451.808 47.8382C455.154 52.9195 456.827 59.9219 456.827 68.9071C456.827 74.5462 456.145 79.4416 454.658 83.4695C453.171 87.5593 451.188 90.9056 448.647 93.5082C446.107 96.1108 443.132 98.0318 439.724 99.2712C436.316 100.449 432.66 101.068 428.88 101.068C424.852 101.068 421.692 100.82 419.275 100.387C416.858 99.9528 414.565 99.2712 412.334 98.4036V64.5075C412.334 59.7979 413.14 55.956 414.627 52.8576C416.114 49.8212 418.035 47.3425 420.328 45.4215C422.621 43.5005 425.162 42.1992 427.888 41.3936ZM38.1046 46.9709C27.0745 46.9709 17.4075 54.407 14.557 65.0654L14.2472 66.1189H61.9621L61.6523 65.0654C58.8018 54.407 49.0729 46.9709 38.1046 46.9709Z" fill="white"/>
</svg>
